<?xml version="1.0" encoding="UTF-8"?>
<!DOCTYPE svg PUBLIC "-//W3C//DTD SVG 1.1//EN" "http://www.w3.org/Graphics/SVG/1.1/DTD/svg11.dtd">
<svg xmlns="http://www.w3.org/2000/svg" version="1.1" width="196px" height="196px" style="shape-rendering:geometricPrecision; text-rendering:geometricPrecision; image-rendering:optimizeQuality; fill-rule:evenodd; clip-rule:evenodd" xmlns:xlink="http://www.w3.org/1999/xlink">
<g><path style="opacity:1" fill="#fefefe" d="M -0.5,-0.5 C 64.8333,-0.5 130.167,-0.5 195.5,-0.5C 195.5,64.8333 195.5,130.167 195.5,195.5C 130.167,195.5 64.8333,195.5 -0.5,195.5C -0.5,130.167 -0.5,64.8333 -0.5,-0.5 Z"/></g>
<g><path style="opacity:1" fill="#c2c1c1" d="M 169.5,77.5 C 116.664,77.1677 63.9974,77.5011 11.5,78.5C 10.9569,78.44 10.6236,78.1067 10.5,77.5C 63.6651,76.1687 116.665,76.1687 169.5,77.5 Z"/></g>
<g><path style="opacity:1" fill="#272424" d="M 11.5,78.5 C 63.9974,77.5011 116.664,77.1677 169.5,77.5C 164.833,82.8333 160.167,88.1667 155.5,93.5C 154.957,93.56 154.624,93.8933 154.5,94.5C 158.122,95.3253 161.789,95.8253 165.5,96C 166.044,96.7172 166.711,97.2172 167.5,97.5C 170.552,99.4399 171.885,102.273 171.5,106C 171.799,109.735 170.466,112.735 167.5,115C 160.247,116.557 152.914,116.89 145.5,116C 142.833,114 142.833,112 145.5,110C 151.833,109.667 158.167,109.333 164.5,109C 165.982,106.408 165.648,104.075 163.5,102C 155.833,101.667 148.167,101.333 140.5,101C 145.5,95.3333 150.5,89.6667 155.5,84C 150.798,83.1717 146.131,83.3384 141.5,84.5C 145.357,91.839 143.69,97.5057 136.5,101.5C 135.507,106.12 135.173,110.786 135.5,115.5C 133.856,115.714 132.356,115.38 131,114.5C 130.828,110.129 130.328,105.796 129.5,101.5C 127.814,100.143 126.148,98.8098 124.5,97.5C 124.5,99.1667 124.5,100.833 124.5,102.5C 122.833,102.5 121.167,102.5 119.5,102.5C 119.915,115.973 113.581,120.806 100.5,117C 94.918,112.261 94.0846,106.761 98,100.5C 102.215,97.1123 107.049,95.779 112.5,96.5C 113.434,95.4324 113.768,94.099 113.5,92.5C 107.5,92.5 101.5,92.5 95.5,92.5C 93.0737,91.6475 92.2404,89.9808 93,87.5C 93.6708,86.7476 94.5041,86.4142 95.5,86.5C 101.5,86.5 107.5,86.5 113.5,86.5C 113.5,85.5 113.5,84.5 113.5,83.5C 105.648,83.1746 97.9818,83.508 90.5,84.5C 90.5,95.1667 90.5,105.833 90.5,116.5C 79.1667,116.5 67.8333,116.5 56.5,116.5C 56.8235,109.978 56.4902,103.645 55.5,97.5C 53.2713,94.9064 51.1046,95.2398 49,98.5C 48.6667,104.167 48.3333,109.833 48,115.5C 46.3005,116.406 44.4672,116.739 42.5,116.5C 42.5,105.5 42.5,94.5 42.5,83.5C 36.7945,83.1712 31.1278,83.5046 25.5,84.5C 30.6168,89.9054 35.6168,95.4054 40.5,101C 32.5,101.333 24.5,101.667 16.5,102C 14.5356,104.167 14.2022,106.501 15.5,109C 21.8333,109.333 28.1667,109.667 34.5,110C 37.1667,112 37.1667,114 34.5,116C 28.1667,116.667 21.8333,116.667 15.5,116C 9.74295,113.318 7.57628,108.818 9,102.5C 12.398,95.8825 17.898,93.0491 25.5,94C 20.9676,88.6382 16.301,83.4716 11.5,78.5 Z"/></g>
<g><path style="opacity:1" fill="#2e2b2b" d="M 183.5,76.5 C 188.325,76.4881 190.491,78.8214 190,83.5C 187.048,87.4815 184.048,87.4815 181,83.5C 180.333,82.1667 180.333,80.8333 181,79.5C 182.045,78.6266 182.878,77.6266 183.5,76.5 Z"/></g>
<g><path style="opacity:1" fill="#fafafa" d="M 48.5,83.5 C 60.1667,83.5 71.8333,83.5 83.5,83.5C 83.5,92.5 83.5,101.5 83.5,110.5C 76.5,110.5 69.5,110.5 62.5,110.5C 62.666,105.156 62.4994,99.8229 62,94.5C 58.7103,89.9413 54.2103,88.2746 48.5,89.5C 48.5,87.5 48.5,85.5 48.5,83.5 Z"/></g>
<g><path style="opacity:1" fill="#f2f2f2" d="M 124.5,97.5 C 122.883,96.962 121.216,96.6287 119.5,96.5C 119.5,92.1667 119.5,87.8333 119.5,83.5C 121.527,83.3379 123.527,83.5045 125.5,84C 121.919,88.243 121.585,92.743 124.5,97.5 Z"/></g>
<g><path style="opacity:1" fill="#cccbcb" d="M 90.5,84.5 C 97.9818,83.508 105.648,83.1746 113.5,83.5C 113.5,84.5 113.5,85.5 113.5,86.5C 107.5,86.5 101.5,86.5 95.5,86.5C 100.985,85.6728 106.652,85.1728 112.5,85C 105.174,84.5003 97.8409,84.3337 90.5,84.5 Z"/></g>
<g><path style="opacity:1" fill="#f5f5f5" d="M 130.5,87.5 C 137.004,87.1377 138.671,89.6377 135.5,95C 129.797,95.4559 128.13,92.9559 130.5,87.5 Z"/></g>
<g><path style="opacity:1" fill="#272424" d="M 170.5,95.5 C 168.435,95.4828 166.435,95.1495 164.5,94.5C 163.333,88.5036 165.666,86.0036 171.5,87C 174.346,90.2583 174.013,93.0917 170.5,95.5 Z"/></g>
<g><path style="opacity:1" fill="#b9b8b8" d="M 95.5,92.5 C 101.5,92.5 107.5,92.5 113.5,92.5C 113.768,94.099 113.434,95.4324 112.5,96.5C 112.5,95.5 112.5,94.5 112.5,93.5C 106.642,93.8222 100.975,93.4889 95.5,92.5 Z"/></g>
<g><path style="opacity:1" fill="#908e8e" d="M 155.5,93.5 C 158.287,94.4767 161.287,94.81 164.5,94.5C 166.435,95.1495 168.435,95.4828 170.5,95.5C 169.5,96.1667 168.5,96.8333 167.5,97.5C 166.711,97.2172 166.044,96.7172 165.5,96C 161.789,95.8253 158.122,95.3253 154.5,94.5C 154.624,93.8933 154.957,93.56 155.5,93.5 Z"/></g>
<g><path style="opacity:1" fill="#363333" d="M 177.5,96.5 C 179.144,96.2865 180.644,96.6198 182,97.5C 182.667,103.167 182.667,108.833 182,114.5C 180.333,115.833 178.667,115.833 177,114.5C 176.212,108.418 176.379,102.418 177.5,96.5 Z"/></g>
<g><path style="opacity:1" fill="#f5f5f5" d="M 103.5,103.5 C 106.5,103.5 109.5,103.5 112.5,103.5C 112.663,105.857 112.497,108.19 112,110.5C 108.435,112.053 105.101,111.72 102,109.5C 101.591,107.305 102.091,105.305 103.5,103.5 Z"/></g>
<g><path style="opacity:1" fill="#989797" d="M 55.5,97.5 C 56.4902,103.645 56.8235,109.978 56.5,116.5C 67.8333,116.5 79.1667,116.5 90.5,116.5C 79.012,117.495 67.3453,117.828 55.5,117.5C 55.5,110.833 55.5,104.167 55.5,97.5 Z"/></g>
</svg>
